<svg xmlns="http://www.w3.org/2000/svg" xmlns:xlink="http://www.w3.org/1999/xlink" version="1.1" width="464.075pt" height="124.578pt" viewBox="0 0 464.075 124.578">
<path transform="matrix(1,0,0,-1,-41.25,-24.669999)" stroke-width="1.49442" stroke-linecap="butt" stroke-miterlimit="10" stroke-linejoin="miter" fill="none" stroke="#000000" d="M44.83246-111.52074 501.7499-111.89433"/>
<path transform="matrix(1,0,0,-1,-41.25,-24.669999)" d="M51.60216-110.99768C54.96458-98.66875 57.22115-81.94624 61.8912-70.0507 66.19511-59.09663 72.34464-77.52278 82.06581-74.16035 92.22783-70.64099 89.88158-44.81749 101.49321-47.26088 105.14705-48.03049 108.62904-55.98825 111.20691-58.09538 111.51326-58.34196 111.87938-58.5736 112.3053-58.7828 116.36263-60.83763 125.35153-61.59232 126.89827-64.07304 129.60315-68.3919 126.73387-74.61613 129.51349-79.39081 131.20218-82.2825 135.28192-83.41824 136.61197-86.48927 139.32433-92.74341 148.33565-103.6601 148.33565-111.13217" fill="#bfdbe2"/>
<path transform="matrix(1,0,0,-1,-41.25,-24.669999)" stroke-width=".74721" stroke-linecap="round" stroke-linejoin="round" fill="none" stroke="#598e9d" d="M51.60216-110.99768C54.96458-98.66875 57.22115-81.94624 61.8912-70.0507 66.19511-59.09663 72.34464-77.52278 82.06581-74.16035 92.22783-70.64099 89.88158-44.81749 101.49321-47.26088 105.14705-48.03049 108.62904-55.98825 111.20691-58.09538 111.51326-58.34196 111.87938-58.5736 112.3053-58.7828 116.36263-60.83763 125.35153-61.59232 126.89827-64.07304 129.60315-68.3919 126.73387-74.61613 129.51349-79.39081 131.20218-82.2825 135.28192-83.41824 136.61197-86.48927 139.32433-92.74341 148.33565-103.6601 148.33565-111.13217"/>
<path transform="matrix(1,0,0,-1,-41.25,-24.669999)" d="M268.57633-112.58176C282.33988-116.70636 280.22529-126.15106 292.1582-128.70652 300.6315-130.52222 308.56687-125.12738 317.56327-125.71768 326.20845-126.27809 331.0055-136.34296 339.23228-138.0466 341.42906-138.5024 343.79023-138.99556 345.95716-138.42021 347.76539-137.94199 348.66203-135.62564 350.44038-135.05777 355.02079-133.59323 359.86268-133.0179 364.63734-132.44255 375.88279-131.08263 385.73847-143.20233 395.64646-140.28823 402.05003-138.40525 405.9878-131.77005 411.7114-128.3329 423.53224-121.2419 447.89869-146.04172 451.687-123.84966 452.27729-120.41249 454.92243-115.57059 455.04945-112.08115" fill="#bfe2bf"/>
<path transform="matrix(1,0,0,-1,-41.25,-24.669999)" stroke-width=".74721" stroke-linecap="round" stroke-linejoin="round" fill="none" stroke="#5bb55c" d="M268.57633-112.58176C282.33988-116.70636 280.22529-126.15106 292.1582-128.70652 300.6315-130.52222 308.56687-125.12738 317.56327-125.71768 326.20845-126.27809 331.0055-136.34296 339.23228-138.0466 341.42906-138.5024 343.79023-138.99556 345.95716-138.42021 347.76539-137.94199 348.66203-135.62564 350.44038-135.05777 355.02079-133.59323 359.86268-133.0179 364.63734-132.44255 375.88279-131.08263 385.73847-143.20233 395.64646-140.28823 402.05003-138.40525 405.9878-131.77005 411.7114-128.3329 423.53224-121.2419 447.89869-146.04172 451.687-123.84966 452.27729-120.41249 454.92243-115.57059 455.04945-112.08115"/>
<path transform="matrix(1,0,0,-1,-41.25,-24.669999)" stroke-width=".74721" stroke-linecap="butt" stroke-miterlimit="10" stroke-linejoin="miter" fill="none" stroke="#000000" d="M90.41212-111.70753C161.41179-27.87831 286.41963-32.2121 365.69087-104.01877"/>
<path transform="matrix(1,0,0,-1,-41.25,-24.669999)" d="M359.7984-102.95157 366.87895-105.10968 364.13844-98.23352Z"/>
<path transform="matrix(1,0,0,-1,-41.25,-24.669999)" stroke-width=".0797" stroke-linecap="butt" stroke-miterlimit="10" stroke-linejoin="miter" fill="none" stroke="#000000" stroke-opacity="0" d="M359.7984-102.95157 366.87895-105.10968 364.13844-98.23352Z"/>
<path transform="matrix(1,0,0,-1,-41.25,-24.669999)" d="M90.41212-111.70753C90.41212-110.60913 91.3013-109.7125 92.40715-109.7125 93.50555-109.7125 94.39473-110.60913 94.39473-111.70753 94.39473-112.80592 93.50555-113.70256 92.40715-113.70256 91.3013-113.70256 90.41212-112.80592 90.41212-111.70753Z"/>
<path transform="matrix(1,0,0,-1,-41.25,-24.669999)" stroke-width=".74721" stroke-linecap="butt" stroke-miterlimit="10" stroke-linejoin="miter" fill="none" stroke="#000000" d="M90.41212-111.70753C90.41212-110.60913 91.3013-109.7125 92.40715-109.7125 93.50555-109.7125 94.39473-110.60913 94.39473-111.70753 94.39473-112.80592 93.50555-113.70256 92.40715-113.70256 91.3013-113.70256 90.41212-112.80592 90.41212-111.70753Z"/>
<path transform="matrix(1,0,0,-1,-41.25,-24.669999)" d="M365.08567-111.40865C365.08567-110.31026 365.97483-109.4136 367.0807-109.4136 368.17909-109.4136 369.06825-110.31026 369.06825-111.40865 369.06825-112.50705 368.17909-113.4037 367.0807-113.4037 365.97483-113.4037 365.08567-112.50705 365.08567-111.40865Z"/>
<path transform="matrix(1,0,0,-1,-41.25,-24.669999)" stroke-width=".74721" stroke-linecap="butt" stroke-miterlimit="10" stroke-linejoin="miter" fill="none" stroke="#000000" d="M365.08567-111.40865C365.08567-110.31026 365.97483-109.4136 367.0807-109.4136 368.17909-109.4136 369.06825-110.31026 369.06825-111.40865 369.06825-112.50705 368.17909-113.4037 367.0807-113.4037 365.97483-113.4037 365.08567-112.50705 365.08567-111.40865Z"/>
<path transform="matrix(1,0,0,-1,-41.25,-24.669999)" stroke-width=".74721" stroke-linecap="butt" stroke-miterlimit="10" stroke-linejoin="miter" fill="none" stroke="#000000" d="M86.67609-114.62163"/>
<text xml:space="preserve" transform="matrix(1 0 -0 1 -.0000038146974 124.578)" font-size="9.9626" font-family="CMMI10" font-style="italic"><tspan y="-29.218" x="46.546">x</tspan></text>
<path transform="matrix(1,0,0,-1,-41.25,-24.669999)" stroke-width=".74721" stroke-linecap="butt" stroke-miterlimit="10" stroke-linejoin="miter" fill="none" stroke="#000000" d="M371.60877-94.6936"/>
<text xml:space="preserve" transform="matrix(1 0 -0 1 0 124.578)" font-size="9.9626" font-family="CMMI10" font-style="italic"><tspan y="-45.963" x="331.475">T</tspan></text>
<text xml:space="preserve" transform="matrix(1 0 -0 1 0 124.578)" font-size="9.9626" font-family="CMR10"><tspan y="-45.963" x="338.68">(</tspan></text>
<text xml:space="preserve" transform="matrix(1 0 -0 1 0 124.578)" font-size="9.9626" font-family="CMMI10" font-style="italic"><tspan y="-45.963" x="342.555">x</tspan></text>
<text xml:space="preserve" transform="matrix(1 0 -0 1 0 124.578)" font-size="9.9626" font-family="CMR10"><tspan y="-45.963" x="348.249">)</tspan></text>
<path transform="matrix(1,0,0,-1,-41.25,-24.669999)" stroke-width=".74721" stroke-linecap="butt" stroke-miterlimit="10" stroke-linejoin="miter" fill="none" stroke="#000000" d="M75.22137-41.39528"/>
<text fill="#598e9d" xml:space="preserve" transform="matrix(1 0 -0 1 .0000038146974 124.578)" font-size="9.9626" font-family="CMMI10" font-style="italic"><tspan y="-102.443" x="35.091">&#x00b5;</tspan></text>
<path transform="matrix(1,0,0,-1,-41.25,-24.669999)" stroke-width=".74721" stroke-linecap="butt" stroke-miterlimit="10" stroke-linejoin="miter" fill="none" stroke="#000000" d="M451.31343-130.55957"/>
<text fill="#5bb55c" xml:space="preserve" transform="matrix(1 0 -0 1 0 124.578)" font-size="9.9626" font-family="CMMI10" font-style="italic"><tspan y="-13.28" x="411.178">&#x03bd;</tspan></text>
</svg>
